<?xml version="1.0" encoding="iso-8859-1"?>
<!-- Generator: Adobe Illustrator 19.0.0, SVG Export Plug-In . SVG Version: 6.00 Build 0)  -->
<svg version="1.1" id="Capa_1" xmlns="http://www.w3.org/2000/svg" xmlns:xlink="http://www.w3.org/1999/xlink" x="0px" y="0px"
	 viewBox="0 0 512 512" style="enable-background:new 0 0 512 512;" xml:space="preserve">
<g>
	<g>
		<g>
			<path d="M429.437,83.051C371.773,26.486,296.829-5.045,233.608,0.661c-5.476,0.511-9.666,5.103-9.675,10.603V44.8
				C100.04,55.03,25.106,146.294,5.64,234.4c-18.059,81.728,5.92,191.723,127.851,255.563
				c30.658,14.419,64.105,21.941,97.984,22.037c40.533,0,80.917-10.997,117.589-32.811
				c67.616-40.203,110.176-109.547,117.973-191.211h33.547c5.579-0.013,10.206-4.323,10.613-9.888
				C516.093,209.888,486.28,138.816,429.437,83.051z M338.216,460.896c-60.491,35.947-131.808,39.467-195.296,9.995
				C32.072,412.8,10.056,313.024,26.418,238.997c17.675-80,85.451-162.752,197.461-172.8v62.155
				c0.011,4.954,3.43,9.248,8.256,10.368c88.043,20.267,134.101,65.973,140.8,139.595c0.511,5.476,5.103,9.666,10.603,9.675h62.165
				C438.045,361.92,399.325,424.534,338.216,460.896z M490.472,266.72l-97.451-0.053c-10.347-74.944-60.032-124.256-147.851-146.72
				V21.333h3.008c53.845,0,117.717,29.237,166.4,76.949C464.178,146.923,491.474,207.787,490.472,266.72z"/>
			<path d="M231.474,160.31c-67.158,0-121.6,54.442-121.6,121.6s54.442,121.6,121.6,121.6s121.6-54.442,121.6-121.6c0,0,0,0,0,0
				C353.01,214.779,298.605,160.374,231.474,160.31z M231.474,383.221v0.021c-55.965,0-101.333-45.369-101.333-101.333
				s45.368-101.333,101.333-101.333s101.333,45.368,101.333,101.333C332.737,337.842,287.407,383.163,231.474,383.221z"/>
			<circle cx="231.474" cy="350.368" r="21.333"/>
			<circle cx="231.474" cy="216.47" r="21.333"/>
			<circle cx="163.069" cy="281.952" r="21.333"/>
			<circle cx="299.954" cy="281.899" r="21.333"/>
		</g>
	</g>
</g>
<g>
</g>
<g>
</g>
<g>
</g>
<g>
</g>
<g>
</g>
<g>
</g>
<g>
</g>
<g>
</g>
<g>
</g>
<g>
</g>
<g>
</g>
<g>
</g>
<g>
</g>
<g>
</g>
<g>
</g>
</svg>
